<svg xmlns="http://www.w3.org/2000/svg" xmlns:xlink="http://www.w3.org/1999/xlink" width="1320" zoomAndPan="magnify" viewBox="80 100 1320 1120" height="1120" preserveAspectRatio="xMidYMid meet" version="1.0"><defs><clipPath id="ffa53d4990"><path d="M 532 152 L 923 152 L 923 1034 L 532 1034 Z M 532 152 " clip-rule="nonzero"/></clipPath><clipPath id="0d550c3e14"><path d="M 1169.410156 738.183594 L 706.742188 1035.269531 L 329.515625 447.792969 L 792.183594 150.710938 Z M 1169.410156 738.183594 " clip-rule="nonzero"/></clipPath><clipPath id="96b0af765c"><path d="M 710.667969 1032.746094 L 712.164062 1031.785156 C 713.976562 1030.625 715.71875 1028.574219 716.582031 1026.605469 L 722.714844 1012.566406 C 725.820312 1005.464844 733.667969 992.695312 738.605469 986.71875 L 778.371094 938.566406 C 791.535156 922.625 822.410156 880.8125 833.769531 863.535156 L 846.601562 844.023438 C 852.316406 835.335938 865.257812 812.949219 869.933594 803.65625 L 878.300781 787.027344 C 882.035156 779.605469 890.199219 760.703125 893.039062 752.898438 L 900.554688 732.234375 C 904.011719 722.726562 910.371094 699.925781 912.332031 690 L 919.195312 655.242188 C 921.960938 641.242188 923.421875 613.894531 922.164062 599.675781 L 920.925781 585.679688 C 920.316406 578.804688 917.398438 564.910156 915.1875 558.371094 L 909.613281 541.871094 C 906.859375 533.722656 899.277344 517.960938 894.628906 510.722656 L 880.117188 488.121094 C 873.574219 477.933594 856.101562 454.246094 848.292969 444.988281 L 805.101562 393.761719 C 798.378906 385.789062 795.035156 375.746094 795.640625 365.335938 L 796.371094 352.789062 C 796.496094 350.605469 795.835938 348.089844 794.652344 346.246094 L 793.691406 344.75 C 793.152344 343.914062 792.628906 342.480469 792.5 341.492188 L 788.191406 308.78125 C 787.585938 304.171875 785.273438 294.234375 783.785156 289.828125 L 782.222656 285.199219 C 781.449219 282.917969 780.441406 278.09375 780.234375 275.695312 L 778.25 252.773438 C 777.253906 241.253906 778.34375 218.59375 780.4375 207.222656 L 783.484375 190.714844 C 784.628906 184.503906 788.484375 173.523438 791.472656 167.957031 L 795.472656 160.511719 C 796.515625 158.5625 796.117188 156.15625 794.496094 154.65625 L 793.023438 153.289062 C 792.335938 152.648438 791.40625 152.34375 790.472656 152.453125 C 789.542969 152.5625 788.707031 153.074219 788.183594 153.851562 L 782.355469 162.539062 C 778.207031 168.96875 773.164062 181.097656 771.535156 188.570312 L 768.777344 201.230469 C 767.402344 207.539062 766.296875 220.378906 766.570312 226.832031 L 767.871094 257.234375 C 768.332031 268.015625 771.714844 291.046875 774.378906 301.503906 L 777.148438 312.40625 C 778.382812 317.257812 780.757812 329.488281 781.425781 334.449219 L 784.273438 355.550781 C 784.75 359.078125 784.5 365.273438 783.742188 368.75 L 783.03125 372.027344 C 782.574219 374.125 781.300781 375.953125 779.496094 377.113281 L 772.339844 381.707031 C 767.585938 384.761719 756.585938 390.378906 751.328125 392.4375 L 734.332031 399.097656 C 726.878906 402.015625 708.207031 410.40625 701.074219 414.039062 L 677.359375 426.121094 C 666.09375 431.859375 642.636719 446.816406 632.6875 454.609375 L 610.183594 472.230469 C 602.332031 478.378906 586.417969 493.519531 579.886719 501.058594 L 573.007812 508.996094 C 569.78125 512.71875 563.28125 521.726562 560.765625 525.964844 L 552.613281 539.679688 C 548.359375 546.828125 542.832031 560.855469 541.0625 568.980469 L 535.621094 593.949219 C 532.78125 606.964844 531.488281 631.078125 532.910156 644.324219 L 535.515625 668.519531 C 536.726562 679.78125 541.652344 705.230469 544.734375 716.132812 L 549.175781 731.851562 C 551.109375 738.695312 556.910156 756.179688 559.453125 762.824219 L 566.917969 782.339844 C 570.195312 790.898438 579.628906 812.351562 583.722656 820.550781 L 598.761719 850.675781 C 605.253906 863.671875 623.691406 897.191406 631.195312 909.632812 L 697.664062 1019.828125 C 699.207031 1022.332031 702.925781 1027.242188 704.972656 1029.359375 L 707.9375 1032.429688 C 708.65625 1033.171875 709.796875 1033.304688 710.667969 1032.746094 Z M 710.667969 1032.746094 " clip-rule="nonzero"/></clipPath><clipPath id="125b9f7a45"><path d="M 0 0.160156 L 391 0.160156 L 391 881.441406 L 0 881.441406 Z M 0 0.160156 " clip-rule="nonzero"/></clipPath><clipPath id="bc232e236a"><path d="M 637.410156 586.183594 L 174.742188 883.269531 L -202.484375 295.792969 L 260.183594 -1.289062 Z M 637.410156 586.183594 " clip-rule="nonzero"/></clipPath><clipPath id="c3a9e728a3"><path d="M 178.667969 880.746094 L 180.164062 879.785156 C 181.976562 878.625 183.71875 876.574219 184.582031 874.605469 L 190.714844 860.566406 C 193.820312 853.464844 201.667969 840.695312 206.605469 834.71875 L 246.371094 786.566406 C 259.535156 770.625 290.410156 728.8125 301.769531 711.535156 L 314.601562 692.023438 C 320.316406 683.335938 333.257812 660.949219 337.933594 651.65625 L 346.300781 635.027344 C 350.035156 627.605469 358.199219 608.703125 361.039062 600.898438 L 368.554688 580.234375 C 372.011719 570.726562 378.371094 547.925781 380.332031 538 L 387.195312 503.242188 C 389.960938 489.242188 391.421875 461.894531 390.164062 447.675781 L 388.925781 433.679688 C 388.316406 426.804688 385.398438 412.910156 383.1875 406.371094 L 377.613281 389.871094 C 374.859375 381.722656 367.277344 365.960938 362.628906 358.722656 L 348.117188 336.121094 C 341.574219 325.933594 324.101562 302.246094 316.292969 292.988281 L 273.101562 241.761719 C 266.378906 233.789062 263.035156 223.746094 263.640625 213.335938 L 264.371094 200.789062 C 264.496094 198.605469 263.835938 196.089844 262.652344 194.246094 L 261.691406 192.75 C 261.152344 191.914062 260.628906 190.480469 260.5 189.492188 L 256.191406 156.78125 C 255.585938 152.171875 253.273438 142.234375 251.785156 137.828125 L 250.222656 133.199219 C 249.449219 130.917969 248.441406 126.09375 248.234375 123.695312 L 246.25 100.773438 C 245.253906 89.253906 246.34375 66.59375 248.4375 55.222656 L 251.484375 38.714844 C 252.628906 32.503906 256.484375 21.523438 259.472656 15.957031 L 263.472656 8.511719 C 264.515625 6.5625 264.117188 4.15625 262.496094 2.65625 L 261.023438 1.289062 C 260.335938 0.648438 259.40625 0.34375 258.472656 0.453125 C 257.542969 0.5625 256.707031 1.074219 256.183594 1.851562 L 250.355469 10.539062 C 246.207031 16.96875 241.164062 29.097656 239.535156 36.570312 L 236.777344 49.230469 C 235.402344 55.539062 234.296875 68.378906 234.570312 74.832031 L 235.871094 105.234375 C 236.332031 116.015625 239.714844 139.046875 242.378906 149.503906 L 245.148438 160.40625 C 246.382812 165.257812 248.757812 177.488281 249.425781 182.449219 L 252.273438 203.550781 C 252.75 207.078125 252.5 213.273438 251.742188 216.75 L 251.03125 220.027344 C 250.574219 222.125 249.300781 223.953125 247.496094 225.113281 L 240.339844 229.707031 C 235.585938 232.761719 224.585938 238.378906 219.328125 240.4375 L 202.332031 247.097656 C 194.878906 250.015625 176.207031 258.40625 169.074219 262.039062 L 145.359375 274.121094 C 134.09375 279.859375 110.636719 294.816406 100.6875 302.609375 L 78.183594 320.230469 C 70.332031 326.378906 54.417969 341.519531 47.886719 349.058594 L 41.007812 356.996094 C 37.78125 360.71875 31.28125 369.726562 28.765625 373.964844 L 20.613281 387.679688 C 16.359375 394.828125 10.832031 408.855469 9.0625 416.980469 L 3.621094 441.949219 C 0.78125 454.964844 -0.511719 479.078125 0.910156 492.324219 L 3.515625 516.519531 C 4.726562 527.78125 9.652344 553.230469 12.734375 564.132812 L 17.175781 579.851562 C 19.109375 586.695312 24.910156 604.179688 27.453125 610.824219 L 34.917969 630.339844 C 38.195312 638.898438 47.628906 660.351562 51.722656 668.550781 L 66.761719 698.675781 C 73.253906 711.671875 91.691406 745.191406 99.195312 757.632812 L 165.664062 867.828125 C 167.207031 870.332031 170.925781 875.242188 172.972656 877.359375 L 175.9375 880.429688 C 176.65625 881.171875 177.796875 881.304688 178.667969 880.746094 Z M 178.667969 880.746094 " clip-rule="nonzero"/></clipPath><clipPath id="498da42986"><rect x="0" width="391" y="0" height="882"/></clipPath></defs><g clip-path="url(#ffa53d4990)"><g clip-path="url(#0d550c3e14)"><g clip-path="url(#96b0af765c)"><g transform="matrix(1, 0, 0, 1, 532, 152)"><g clip-path="url(#498da42986)"><g clip-path="url(#125b9f7a45)"><g clip-path="url(#bc232e236a)"><g clip-path="url(#c3a9e728a3)"><path fill="#2ecc71" d="M 638.039062 585.777344 L 175.371094 882.863281 L -201.851562 295.390625 L 260.816406 -1.695312 Z M 638.039062 585.777344 " fill-opacity="1" fill-rule="nonzero"/></g></g></g></g></g></g></g></g><path stroke-linecap="butt" transform="matrix(-0.0790532, 0.745822, -0.745822, -0.0790532, 784.302206, 378.682623)" fill="none" stroke-linejoin="miter" d="M 1.984236 5.66284 C 292.424283 107.297689 582.870407 107.298023 873.317426 5.664391 " stroke="#737373" stroke-width="12" stroke-opacity="1" stroke-miterlimit="4"/><path stroke-linecap="butt" transform="matrix(0.585694, 0.468469, -0.468469, 0.585694, 728.280859, 509.859008)" fill="none" stroke-linejoin="miter" d="M 0.000353117 4.002009 L 328.289834 4.001443 " stroke="#737373" stroke-width="8" stroke-opacity="1" stroke-miterlimit="4"/><path stroke-linecap="butt" transform="matrix(0.618007, 0.424932, -0.424932, 0.618007, 703.368477, 590.060857)" fill="none" stroke-linejoin="miter" d="M -0.00209544 3.998793 L 322.886918 4.000922 " stroke="#737373" stroke-width="8" stroke-opacity="1" stroke-miterlimit="4"/><path stroke-linecap="butt" transform="matrix(0.571477, 0.48571, -0.48571, 0.571477, 691.068262, 680.031377)" fill="none" stroke-linejoin="miter" d="M -0.00118585 3.999472 L 295.631292 4.003064 " stroke="#737373" stroke-width="8" stroke-opacity="1" stroke-miterlimit="4"/><path stroke-linecap="butt" transform="matrix(0.649519, -0.375, 0.375, 0.649519, 529.272948, 622.548742)" fill="none" stroke-linejoin="miter" d="M -0.000513829 4.002196 L 301.196312 4.001552 " stroke="#737373" stroke-width="8" stroke-opacity="1" stroke-miterlimit="4"/><path stroke-linecap="butt" transform="matrix(0.599146, -0.451136, 0.451136, 0.599146, 546.51913, 709.369479)" fill="none" stroke-linejoin="miter" d="M 0.00092919 3.999969 L 264.301422 4.001972 " stroke="#737373" stroke-width="8" stroke-opacity="1" stroke-miterlimit="4"/><path stroke-linecap="butt" transform="matrix(0.545223, -0.515007, 0.515007, 0.545223, 571.808432, 794.791616)" fill="none" stroke-linejoin="miter" d="M -0.00136746 3.99898 L 222.639901 4.001822 " stroke="#737373" stroke-width="8" stroke-opacity="1" stroke-miterlimit="4"/><path stroke-linecap="butt" transform="matrix(0.451019, -0.599234, 0.599234, 0.451019, 614.730868, 879.05628)" fill="none" stroke-linejoin="miter" d="M 0.00192863 4.000386 L 148.418818 3.998124 " stroke="#737373" stroke-width="8" stroke-opacity="1" stroke-miterlimit="4"/><path stroke-linecap="butt" transform="matrix(0.447604, 0.601789, -0.601789, 0.447604, 687.400174, 790.138568)" fill="none" stroke-linejoin="miter" d="M 0.0000922181 4.001447 L 224.97378 4.001338 " stroke="#737373" stroke-width="8" stroke-opacity="1" stroke-miterlimit="4"/><text y="1175" text-anchor="middle"
    font-family="'DM Sans', -apple-system, BlinkMacSystemFont, 'Segoe UI', Roboto, sans-serif"
    font-size="150" font-weight="700" letter-spacing="-2">
  <tspan x="727" fill="white">Bureau </tspan><tspan
    fill="#2ECC71"
    font-family="'Playfair Display', Georgia, 'Times New Roman', serif"
    font-style="italic">Intake</tspan>
</text>
</svg>