<svg xmlns="http://www.w3.org/2000/svg" xmlns:xlink="http://www.w3.org/1999/xlink" width="2000" zoomAndPan="magnify" viewBox="0 0 1500 1499.999933" height="2000" preserveAspectRatio="xMidYMid meet" version="1.0"><defs><clipPath id="db23a0c310"><path d="M 532 154 L 923 154 L 923 1036 L 532 1036 Z M 532 154 " clip-rule="nonzero"/></clipPath><clipPath id="14d4f05903"><path d="M 1169.410156 740.433594 L 706.742188 1037.519531 L 329.515625 450.042969 L 792.183594 152.960938 Z M 1169.410156 740.433594 " clip-rule="nonzero"/></clipPath><clipPath id="798a52c530"><path d="M 710.667969 1034.996094 L 712.164062 1034.035156 C 713.976562 1032.875 715.71875 1030.824219 716.582031 1028.855469 L 722.714844 1014.816406 C 725.820312 1007.714844 733.667969 994.945312 738.605469 988.96875 L 778.371094 940.816406 C 791.535156 924.875 822.410156 883.0625 833.769531 865.785156 L 846.601562 846.273438 C 852.316406 837.585938 865.257812 815.199219 869.933594 805.90625 L 878.300781 789.277344 C 882.035156 781.855469 890.199219 762.953125 893.039062 755.148438 L 900.554688 734.484375 C 904.011719 724.976562 910.371094 702.175781 912.332031 692.25 L 919.195312 657.492188 C 921.960938 643.492188 923.421875 616.144531 922.164062 601.925781 L 920.925781 587.929688 C 920.316406 581.054688 917.398438 567.160156 915.1875 560.621094 L 909.613281 544.121094 C 906.859375 535.972656 899.277344 520.210938 894.628906 512.972656 L 880.117188 490.371094 C 873.574219 480.183594 856.101562 456.496094 848.292969 447.238281 L 805.101562 396.011719 C 798.378906 388.039062 795.035156 377.996094 795.640625 367.585938 L 796.371094 355.039062 C 796.496094 352.855469 795.835938 350.339844 794.652344 348.496094 L 793.691406 347 C 793.152344 346.164062 792.628906 344.730469 792.5 343.742188 L 788.191406 311.03125 C 787.585938 306.421875 785.273438 296.484375 783.785156 292.078125 L 782.222656 287.449219 C 781.449219 285.167969 780.441406 280.34375 780.234375 277.945312 L 778.25 255.023438 C 777.253906 243.503906 778.34375 220.84375 780.4375 209.472656 L 783.484375 192.964844 C 784.628906 186.753906 788.484375 175.773438 791.472656 170.207031 L 795.472656 162.761719 C 796.515625 160.8125 796.117188 158.40625 794.496094 156.90625 L 793.023438 155.539062 C 792.335938 154.898438 791.40625 154.59375 790.472656 154.703125 C 789.542969 154.8125 788.707031 155.324219 788.183594 156.101562 L 782.355469 164.789062 C 778.207031 171.21875 773.164062 183.347656 771.535156 190.820312 L 768.777344 203.480469 C 767.402344 209.789062 766.296875 222.628906 766.570312 229.082031 L 767.871094 259.484375 C 768.332031 270.265625 771.714844 293.296875 774.378906 303.753906 L 777.148438 314.65625 C 778.382812 319.507812 780.757812 331.738281 781.425781 336.699219 L 784.273438 357.800781 C 784.75 361.328125 784.5 367.523438 783.742188 371 L 783.03125 374.277344 C 782.574219 376.375 781.300781 378.203125 779.496094 379.363281 L 772.339844 383.957031 C 767.585938 387.011719 756.585938 392.628906 751.328125 394.6875 L 734.332031 401.347656 C 726.878906 404.265625 708.207031 412.65625 701.074219 416.289062 L 677.359375 428.371094 C 666.09375 434.109375 642.636719 449.066406 632.6875 456.859375 L 610.183594 474.480469 C 602.332031 480.628906 586.417969 495.769531 579.886719 503.308594 L 573.007812 511.246094 C 569.78125 514.96875 563.28125 523.976562 560.765625 528.214844 L 552.613281 541.929688 C 548.359375 549.078125 542.832031 563.105469 541.0625 571.230469 L 535.621094 596.199219 C 532.78125 609.214844 531.488281 633.328125 532.910156 646.574219 L 535.515625 670.769531 C 536.726562 682.03125 541.652344 707.480469 544.734375 718.382812 L 549.175781 734.101562 C 551.109375 740.945312 556.910156 758.429688 559.453125 765.074219 L 566.917969 784.589844 C 570.195312 793.148438 579.628906 814.601562 583.722656 822.800781 L 598.761719 852.925781 C 605.253906 865.921875 623.691406 899.441406 631.195312 911.882812 L 697.664062 1022.078125 C 699.207031 1024.582031 702.925781 1029.492188 704.972656 1031.609375 L 707.9375 1034.679688 C 708.65625 1035.421875 709.796875 1035.554688 710.667969 1034.996094 Z M 710.667969 1034.996094 " clip-rule="nonzero"/></clipPath><clipPath id="34947bcfbc"><path d="M 0 0.558594 L 391 0.558594 L 391 881.601562 L 0 881.601562 Z M 0 0.558594 " clip-rule="nonzero"/></clipPath><clipPath id="6be987ca3d"><path d="M 637.410156 586.433594 L 174.742188 883.519531 L -202.484375 296.042969 L 260.183594 -1.039062 Z M 637.410156 586.433594 " clip-rule="nonzero"/></clipPath><clipPath id="bd651f47b9"><path d="M 178.667969 880.996094 L 180.164062 880.035156 C 181.976562 878.875 183.71875 876.824219 184.582031 874.855469 L 190.714844 860.816406 C 193.820312 853.714844 201.667969 840.945312 206.605469 834.96875 L 246.371094 786.816406 C 259.535156 770.875 290.410156 729.0625 301.769531 711.785156 L 314.601562 692.273438 C 320.316406 683.585938 333.257812 661.199219 337.933594 651.90625 L 346.300781 635.277344 C 350.035156 627.855469 358.199219 608.953125 361.039062 601.148438 L 368.554688 580.484375 C 372.011719 570.976562 378.371094 548.175781 380.332031 538.25 L 387.195312 503.492188 C 389.960938 489.492188 391.421875 462.144531 390.164062 447.925781 L 388.925781 433.929688 C 388.316406 427.054688 385.398438 413.160156 383.1875 406.621094 L 377.613281 390.121094 C 374.859375 381.972656 367.277344 366.210938 362.628906 358.972656 L 348.117188 336.371094 C 341.574219 326.183594 324.101562 302.496094 316.292969 293.238281 L 273.101562 242.011719 C 266.378906 234.039062 263.035156 223.996094 263.640625 213.585938 L 264.371094 201.039062 C 264.496094 198.855469 263.835938 196.339844 262.652344 194.496094 L 261.691406 193 C 261.152344 192.164062 260.628906 190.730469 260.5 189.742188 L 256.191406 157.03125 C 255.585938 152.421875 253.273438 142.484375 251.785156 138.078125 L 250.222656 133.449219 C 249.449219 131.167969 248.441406 126.34375 248.234375 123.945312 L 246.25 101.023438 C 245.253906 89.503906 246.34375 66.84375 248.4375 55.472656 L 251.484375 38.964844 C 252.628906 32.753906 256.484375 21.773438 259.472656 16.207031 L 263.472656 8.761719 C 264.515625 6.8125 264.117188 4.40625 262.496094 2.90625 L 261.023438 1.539062 C 260.335938 0.898438 259.40625 0.59375 258.472656 0.703125 C 257.542969 0.8125 256.707031 1.324219 256.183594 2.101562 L 250.355469 10.789062 C 246.207031 17.21875 241.164062 29.347656 239.535156 36.820312 L 236.777344 49.480469 C 235.402344 55.789062 234.296875 68.628906 234.570312 75.082031 L 235.871094 105.484375 C 236.332031 116.265625 239.714844 139.296875 242.378906 149.753906 L 245.148438 160.65625 C 246.382812 165.507812 248.757812 177.738281 249.425781 182.699219 L 252.273438 203.800781 C 252.75 207.328125 252.5 213.523438 251.742188 217 L 251.03125 220.277344 C 250.574219 222.375 249.300781 224.203125 247.496094 225.363281 L 240.339844 229.957031 C 235.585938 233.011719 224.585938 238.628906 219.328125 240.6875 L 202.332031 247.347656 C 194.878906 250.265625 176.207031 258.65625 169.074219 262.289062 L 145.359375 274.371094 C 134.09375 280.109375 110.636719 295.066406 100.6875 302.859375 L 78.183594 320.480469 C 70.332031 326.628906 54.417969 341.769531 47.886719 349.308594 L 41.007812 357.246094 C 37.78125 360.96875 31.28125 369.976562 28.765625 374.214844 L 20.613281 387.929688 C 16.359375 395.078125 10.832031 409.105469 9.0625 417.230469 L 3.621094 442.199219 C 0.78125 455.214844 -0.511719 479.328125 0.910156 492.574219 L 3.515625 516.769531 C 4.726562 528.03125 9.652344 553.480469 12.734375 564.382812 L 17.175781 580.101562 C 19.109375 586.945312 24.910156 604.429688 27.453125 611.074219 L 34.917969 630.589844 C 38.195312 639.148438 47.628906 660.601562 51.722656 668.800781 L 66.761719 698.925781 C 73.253906 711.921875 91.691406 745.441406 99.195312 757.882812 L 165.664062 868.078125 C 167.207031 870.582031 170.925781 875.492188 172.972656 877.609375 L 175.9375 880.679688 C 176.65625 881.421875 177.796875 881.554688 178.667969 880.996094 Z M 178.667969 880.996094 " clip-rule="nonzero"/></clipPath><clipPath id="83ed5c825e"><rect x="0" width="391" y="0" height="882"/></clipPath></defs><g clip-path="url(#db23a0c310)"><g clip-path="url(#14d4f05903)"><g clip-path="url(#798a52c530)"><g transform="matrix(1, 0, 0, 1, 532, 154)"><g clip-path="url(#83ed5c825e)"><g clip-path="url(#34947bcfbc)"><g clip-path="url(#6be987ca3d)"><g clip-path="url(#bd651f47b9)"><path fill="#2ecc71" d="M 638.039062 586.027344 L 175.371094 883.113281 L -201.851562 295.640625 L 260.816406 -1.445312 Z M 638.039062 586.027344 " fill-opacity="1" fill-rule="nonzero"/></g></g></g></g></g></g></g></g></svg>